<svg xmlns="http://www.w3.org/2000/svg" xmlns:xlink="http://www.w3.org/1999/xlink" version="1.1" x="0px" y="0px" viewBox="0 0 96 120" enable-background="new 0 0 96 96" xml:space="preserve"><path d="M73.832,69.988c-10.924,0-18.668-7.596-25.832-15.904c-7.224,8.359-14.944,15.904-25.832,15.904C9.944,69.988,0,60.124,0,48  s9.944-21.988,22.168-21.988c10.928,0,18.908,7.752,25.832,15.74c6.92-7.98,14.908-15.74,25.832-15.74  C86.057,26.012,96,35.876,96,48S86.052,69.988,73.832,69.988z M53.244,47.92c6.484,7.584,12.752,14.072,20.588,14.072  C81.645,61.992,88,55.72,88,48.004c0-7.712-6.355-13.988-14.168-13.988C65.88,34.012,59.616,40.464,53.244,47.92z M22.168,34.012  C14.356,34.012,8,40.288,8,48c0,7.716,6.356,13.988,14.168,13.988c7.876,0,14.164-6.545,20.588-14.076  C36.376,40.464,30.116,34.012,22.168,34.012z"/><text x="0" y="111" fill="#000000" font-size="5px" font-weight="bold" font-family="'Helvetica Neue', Helvetica, Arial-Unicode, Arial, Sans-serif">Created by iconsmind.com</text><text x="0" y="116" fill="#000000" font-size="5px" font-weight="bold" font-family="'Helvetica Neue', Helvetica, Arial-Unicode, Arial, Sans-serif">from the Noun Project</text></svg>